<svg height="512" viewBox="0 0 64 64" width="512" xmlns="http://www.w3.org/2000/svg"><g id="Layer_20" data-name="Layer 20"><path d="m33 31.07h-9.51l-.58-.57 4.16-4.16a1 1 0 1 0 -1.41-1.41l-4.16 4.16-.43-.43v-9.66a1 1 0 0 0 -2 0v9.51l-.57.58-4.16-4.16a1 1 0 1 0 -1.41 1.41l4.16 4.16-.43.43h-9.66a1 1 0 0 0 0 2h9.51l.58.57-4.16 4.16a1 1 0 0 0 0 1.41 1 1 0 0 0 1.41 0l4.16-4.16.43.43v9.66a1 1 0 0 0 2 0v-9.51l.57-.58 4.16 4.16a1 1 0 0 0 1.41 0 1 1 0 0 0 0-1.41l-4.16-4.16.43-.43h9.66a1 1 0 0 0 0-2z"/><path d="m39 19h6.46l.09.09-2.66 2.61a1 1 0 0 0 0 1.41 1 1 0 0 0 1.41 0l2.7-2.65v6.54a1 1 0 0 0 2 0v-6.46l.09-.09 2.66 2.66a1 1 0 0 0 1.41 0 1 1 0 0 0 0-1.41l-2.65-2.65h6.49a1 1 0 0 0 0-2h-6.46l-.09-.05 2.66-2.66a1 1 0 0 0 -1.41-1.41l-2.65 2.65v-6.58a1 1 0 0 0 -2 0v6.46l-.09.09-2.66-2.66a1 1 0 0 0 -1.41 1.41l2.65 2.7h-6.54a1 1 0 0 0 0 2z"/><path d="m57 45.05h-6.46l-.09-.05 2.66-2.66a1 1 0 0 0 -1.41-1.41l-2.65 2.65v-6.58a1 1 0 0 0 -2 0v6.46l-.09.09-2.66-2.66a1 1 0 0 0 -1.41 1.41l2.65 2.7h-6.54a1 1 0 0 0 0 2h6.46l.09.09-2.66 2.61a1 1 0 0 0 0 1.41 1 1 0 0 0 1.41 0l2.7-2.65v6.54a1 1 0 0 0 2 0v-6.46l.09-.09 2.66 2.66a1 1 0 0 0 1.41 0 1 1 0 0 0 0-1.41l-2.65-2.65h6.49a1 1 0 0 0 0-2z"/></g></svg>